<svg width="219" height="119" viewBox="0 0 219 119" fill="none" xmlns="http://www.w3.org/2000/svg">
<path d="M196.697 77.3532C195.889 80.4851 192.447 84.8675 183.871 85.7086C175.582 86.5164 163.729 84.79 157.366 79.3895C154.411 76.8774 153.26 72.5614 154.555 68.9426C156.923 62.3358 167.403 62.2804 167.403 62.2804C167.403 62.2804 166.751 62.1587 166.463 62.0702C161.881 60.6315 158.406 57.7984 157.919 54.2571C157.521 51.3355 158.639 48.9119 158.949 48.3475C161.372 43.8987 165.821 42.9027 169.606 42.2498C172.45 41.7518 179.809 41.3976 186.892 44.0426C190.821 45.5034 193.178 47.3183 194.251 48.8123C195.081 49.9632 196.442 51.922 196.542 54.8436C196.575 55.8286 196.531 58.8719 194.627 61.0299C193.93 61.8267 193.266 62.4796 192.215 63.0219C191.042 63.6416 187.976 64.2835 185.852 64.3056C185.962 64.3278 186.051 64.361 186.128 64.372C189.083 64.9254 193.986 67.2162 195.834 70.3259C197.649 73.4024 196.974 76.2798 196.708 77.3311M189.979 74.7304C190.157 70.1267 184.158 67.017 176.024 66.1206C167.89 65.2242 161.66 66.4747 161.107 71.5543C160.586 76.3351 166.618 79.0575 174.497 80.0978C182.609 81.1602 189.791 79.5998 189.991 74.7194M164.681 52.7631C164.526 56.9131 170.513 59.7572 176.965 60.4655C184.147 61.2512 189.647 59.9454 190.123 55.5962C190.599 51.258 185.365 48.27 178.171 47.4843C170.989 46.6986 164.847 48.3143 164.681 52.7742" fill="#1A489B"/>
<path d="M153.139 65.1688C150.671 60.543 143.345 58.5288 139.56 58.1747C127.707 57.057 121.167 60.9967 115.777 66.1095C115.357 65.1024 115.069 63.5088 115.268 61.871C115.932 56.5368 119.518 51.7339 126.269 49.7198C131.481 48.1704 138.708 47.7278 142.957 51.8114C144.451 53.25 144.894 54.8547 144.982 56.0167H151.656C151.567 55.1756 151.368 54.2239 151.003 53.2279C146.41 40.7226 127.674 42.0284 119.197 46.4662C110.41 51.0588 107.455 59.1818 108.307 66.696C108.485 68.3007 109.735 73.5131 114.018 77.4307C118.422 81.459 127.209 85.1774 139.46 83.119C156.392 80.2748 155.308 69.2414 153.127 65.1578M140.821 77.5414C135.598 78.9468 120.558 79.1018 116.519 68.345C118.887 65.866 122.949 63.8187 129.201 62.9666C133.783 62.3468 141.762 62.0259 145.702 66.2976C149.63 70.5583 146.797 75.9367 140.821 77.5414Z" fill="#1A489B"/>
<path d="M213.651 22.4957C213.253 19.7844 211.936 17.2391 207.786 16.5861C209.081 12.8677 208.151 6.27201 201.245 2.81921C191.385 -2.10545 184.291 1.64615 180.418 4.60095C173.335 1.63508 165.666 1.38054 160.155 6.20561C155.695 10.1121 154.533 16.3537 155.994 21.4665C157.189 25.6497 159.745 29.1357 163.397 30.4305C163.895 30.6076 164.404 30.7293 164.913 30.8179C164.15 31.8471 163.884 32.7324 164.039 34.8683C164.194 36.982 163.563 39.5052 163.563 39.5052C163.563 39.5052 187.667 36.7053 194.915 44.1532C195.944 45.2156 199.076 39.2175 198.689 33.5956C198.656 33.1861 198.955 32.7213 201.101 32.7656C202.839 32.8099 206.391 33.2747 209.18 31.4708C212.113 29.5784 214.215 26.1699 213.662 22.4736M208.549 30.1981C206.513 31.4819 203.879 31.3491 202.308 31.3048C200.371 31.2605 197.029 30.9507 197.184 33.662C197.283 35.2999 197.051 40.2688 195.059 42.3493C193.62 40.8111 189.924 39.0736 186.361 38.3986C178.581 36.9156 170.004 37.0595 165.445 37.7788C165.732 36.5947 165.566 36.1852 165.5 34.99C165.378 32.7988 166.319 31.4708 166.607 31.0613C167.271 30.3309 174.409 29.6559 177.762 30.4748C180.307 31.0945 176.932 27.8299 170.115 28.848C168.267 29.1247 164.747 29.2907 163.597 28.7373C159.933 26.9888 158.484 23.4917 157.831 20.7361C156.868 16.6525 157.587 12.9784 160.354 9.12721C164.338 3.57174 171.786 2.83028 179.101 5.68548L180.971 6.63721L182.321 5.47521C186.493 2.09988 193.432 0.639078 201.035 4.43495C204.753 6.29415 208.394 11.0639 205.971 17.8588C205.971 17.8588 211.073 18.1355 212.102 21.9424C212.943 25.0521 211.405 28.3943 208.549 30.1981Z" fill="#231F20"/>
<path d="M182.321 5.4752L180.971 6.63719L179.101 5.68546C178.193 5.33133 177.286 5.03253 176.379 4.78906L173.512 28.6709C177.972 28.9033 179.842 30.9839 177.762 30.4748C176.6 30.1871 174.984 30.0875 173.335 30.0985L172.472 37.2587C176.688 37.2033 181.668 37.5021 186.35 38.3985C187.512 38.6199 188.685 38.9629 189.802 39.3724L194.251 2.3212C189.415 1.71253 185.199 3.12906 182.31 5.46413" fill="white"/>
<path d="M212.102 21.9424C211.073 18.1355 205.971 17.8588 205.971 17.8588C208.394 11.0639 204.753 6.29416 201.035 4.43496C199.873 3.85949 198.733 3.40576 197.604 3.06269C196.465 2.70856 195.347 2.46509 194.251 2.32123L189.802 39.3724C191.009 39.8151 192.126 40.3242 193.056 40.8775C193.886 41.3644 194.583 41.8735 195.048 42.3604C197.04 40.2688 197.272 35.2999 197.173 33.6731C197.018 30.9618 200.36 31.2716 202.297 31.3159C203.868 31.3491 206.513 31.493 208.538 30.1982C211.393 28.3943 212.932 25.0522 212.091 21.9424" fill="#EC2027"/>
<path d="M173.202 30.1096C170.148 30.1539 167.027 30.5966 166.607 31.0614C166.319 31.4708 165.378 32.7988 165.5 34.99C165.566 36.1852 165.732 36.5947 165.445 37.7788C167.226 37.5022 169.628 37.314 172.35 37.2698C172.395 37.2698 172.439 37.2698 172.483 37.2698L173.346 30.1096C173.346 30.1096 173.258 30.1096 173.213 30.1096" fill="#1A489B"/>
<path d="M176.257 4.75587C169.916 3.10694 163.829 4.30213 160.365 9.1272C157.598 12.9784 156.879 16.6525 157.842 20.7361C158.495 23.4917 159.945 26.9999 163.608 28.7373C164.759 29.2907 168.289 29.1136 170.126 28.848C171.321 28.6709 172.417 28.6267 173.379 28.6709C173.424 28.6709 173.468 28.6709 173.512 28.6709L176.379 4.78907C176.379 4.78907 176.29 4.76694 176.246 4.75587" fill="#1A489B"/>
<path d="M79.8219 115.456C79.8219 117.26 78.1065 118.012 75.7051 118.079C74.8419 118.101 72.2191 118.079 71.4444 118.079H69.8619V108.86H71.4444C72.1748 108.86 74.4213 108.838 75.3288 108.849C77.7967 108.849 79.0693 109.756 79.1025 111.195C79.1247 111.959 78.8037 112.601 77.9848 112.921C77.5643 113.087 77.3429 113.099 77.3429 113.099C77.3429 113.099 77.5975 113.099 78.1508 113.287C79.2907 113.652 79.8219 114.548 79.8219 115.456ZM78.1065 115.411C78.1065 114.371 77.2212 114.006 75.5391 114.006H71.4444V116.817C72.1195 116.817 74.4435 116.828 75.4395 116.817C77.1105 116.817 78.0955 116.319 78.0955 115.4M71.4555 112.689H74.9304C76.6789 112.623 77.5643 112.213 77.5643 111.306C77.5643 110.487 76.9335 110.111 75.6497 110.066C74.8972 110.044 72.1195 110.066 71.4555 110.066V112.678V112.689Z" fill="#231F20"/>
<path d="M83.33 108.86H81.7364V118.09H83.33V108.86Z" fill="#231F20"/>
<path d="M94.6291 117.271C93.1019 118.554 88.3432 118.554 86.2516 117.171C85.4216 116.629 85.2335 116.33 85.2335 116.33L86.5504 115.378C86.5504 115.378 87.1148 116.031 88.1551 116.441C89.4941 116.983 91.9177 117.116 93.0355 116.54C94.0315 116.02 93.9208 115.345 93.4781 114.902C93.0355 114.471 91.962 114.316 90.4127 114.15C88.1883 113.917 86.8271 113.707 86.0081 112.944C85.3663 112.346 85.1892 111.427 85.6872 110.586C86.5615 109.092 88.7416 108.783 90.5787 108.838C92.6039 108.882 94.3745 109.69 95.2488 110.83L93.9872 111.704C93.9872 111.704 93.6995 111.273 93.2015 110.918C92.4821 110.398 91.3976 110.088 90.1803 110.066C88.8965 110.055 87.8452 110.354 87.3251 110.885C87.0927 111.118 86.9377 111.527 87.1369 111.892C87.2808 112.147 87.7788 112.423 88.4871 112.523C90.0032 112.733 91.3865 112.833 92.9027 113.076C93.5777 113.187 95.0607 113.663 95.4259 114.925C95.6583 115.732 95.4037 116.629 94.6401 117.26" fill="#231F20"/>
<path d="M105.308 108.716V109.956L101.535 109.933V118.09H99.9411V109.933H96.278V108.694L105.308 108.716Z" fill="#231F20"/>
<path d="M116.674 116.031C116.751 117.149 116.818 118.09 116.818 118.09H115.18C115.18 118.09 115.125 117.271 115.091 116.562C115.025 115.301 114.627 114.681 113.885 114.438C113.365 114.272 112.789 114.272 111.605 114.272H108.617V118.067L106.935 118.09V108.683H112.789C113.774 108.705 114.693 108.705 115.39 109.015C116.386 109.458 116.973 110.254 116.928 111.505C116.884 112.767 115.921 113.464 114.848 113.619C116.364 113.851 116.607 115.002 116.685 116.02M115.257 111.416C115.235 110.21 114.328 109.933 112.635 109.922C111.616 109.922 109.326 109.922 108.628 109.922V112.977H113C114.593 112.888 115.291 112.479 115.268 111.416" fill="#231F20"/>
<path d="M129.987 113.419C129.987 116.164 127.575 118.2 124.055 118.189C120.569 118.189 118.135 116.164 118.135 113.419C118.135 110.675 120.669 108.65 124.055 108.65C127.442 108.65 129.987 110.542 129.987 113.419ZM128.205 113.353C128.205 111.461 126.833 109.889 124.055 109.889C121.532 109.889 119.861 111.472 119.861 113.353C119.861 115.234 121.565 116.894 124.033 116.894C126.911 116.894 128.205 115.245 128.205 113.353Z" fill="#231F20"/>
<path d="M144.352 118.178C144.352 118.178 142.802 117.116 141.928 116.551C141.563 117.127 140.511 118.012 139.316 118.145C136.848 118.399 135.211 117.315 135.211 115.6C135.211 114.604 136.096 113.619 137.435 113.497C137.369 113.442 136.915 112.988 136.804 112.811C136.018 111.549 136.882 110.454 137.656 110.111C138.63 109.69 139.825 109.79 140.644 110.254C141.651 110.83 141.662 111.992 141.662 111.992H140.334C140.334 111.992 140.379 110.996 139.294 110.808C138.331 110.653 137.424 111.317 137.911 112.246C137.911 112.269 137.933 112.28 137.944 112.313C138.077 112.512 138.331 112.767 138.674 113.032C139.405 113.585 140.357 114.161 140.423 114.205L142.149 115.323C142.537 114.371 142.382 113.386 142.382 113.386H143.754C143.754 113.386 143.455 114.869 142.548 115.577L143.3 116.064L144.341 116.739V118.167L144.352 118.178ZM141.552 116.286C140.091 115.334 138.697 114.415 137.878 113.807C136.693 114.006 136.384 114.759 136.417 115.323C136.483 116.562 137.878 117.215 139.195 117.182C140.268 117.16 141.065 116.806 141.563 116.286" fill="#231F20"/>
<path d="M160.066 115.644C159.148 117.249 157.432 118.222 155.075 118.222C151.722 118.222 149.298 116.474 149.298 113.397C149.298 110.553 151.711 108.628 155.075 108.628C157.366 108.628 159.015 109.635 159.956 111.151C159.845 111.195 159.756 111.228 159.734 111.25C159.358 111.416 158.937 111.593 158.572 111.759C157.964 110.708 156.768 110.011 155.042 110.011C152.519 110.011 150.936 111.494 150.936 113.431C150.936 115.367 152.652 116.817 155.042 116.817C156.791 116.817 157.964 116.131 158.661 115.057C159.103 115.257 159.712 115.511 159.79 115.544C159.812 115.555 159.922 115.6 160.055 115.666" fill="#231F20"/>
<path d="M171.52 118.123H169.65L168.377 115.644H163.353L162.103 118.123H160.288L165.124 108.827H166.64L171.52 118.112V118.123ZM167.713 114.371L165.843 110.431L163.973 114.371H167.713Z" fill="#231F20"/>
<path d="M180.905 110.044H174.453L174.475 112.844H180.329V114.061H174.475L174.453 118.09H172.87V108.827H180.905V110.044Z" fill="#231F20"/>
<path d="M190.821 110.044H184.258V112.767L190.145 112.789V114.006L184.258 113.984V116.839H190.821V118.09H182.664V108.816H190.821V110.044Z" fill="#231F20"/>
<path d="M186.029 107.643L187.235 105.916L188.596 105.927L187.036 107.643H186.029Z" fill="#231F20"/>
<path d="M59.592 25.0411C59.592 25.0411 41.3652 5.14318 19.9512 14.738C1.5252 22.9937 2.4216 45.6472 9.30507 55.8839C14.7499 63.9625 23.3155 69.4073 37.3369 70.7464C60.4109 72.9376 81.1941 65.5672 84.5805 52.9623C87.0927 43.6109 77.686 34.9236 72.8277 51.3576C67.6707 68.8097 61.1524 105.894 56.106 112.966C51.0596 120.037 40.2253 120.867 38.6649 114.404C37.1931 108.318 41.0664 102.475 64.5388 98.4573C88.0112 94.4401 144.075 81.9237 216.263 102.508C216.263 102.508 219.328 104.267 217.89 107.72C217.06 109.712 214.946 110.243 211.36 108.572C207.775 106.901 141.895 83.8272 57.4561 101.921C57.4561 101.921 42.2284 104.843 42.2063 111.25C42.2063 114.559 43.7888 116.33 45.8472 116.33C52.7417 116.341 53.8484 108.628 56.1724 98.6897C58.4964 88.7408 66.0328 56.0941 69.1204 48.104C72.208 40.1138 77.7745 38.4981 81.8471 39.0625C90.1581 40.2135 90.9771 48.8676 86.7053 56.8577C82.3783 64.9253 74.0119 69.0089 57.7992 71.5432C39.9376 74.332 30.4203 73.4245 18.9109 67.7584C7.966 62.3689 -1.63986 49.5094 0.695204 33.4406C3.10774 16.9292 17.7932 7.45612 31.8257 8.35252C45.8583 9.24892 61.8164 22.4847 59.5809 25.0411H59.592Z" fill="#EC2027"/>
<path d="M109.735 71.4104C109.58 71.5432 109.425 71.6649 109.259 71.7977C106.426 74.1771 103.848 77.0544 100.671 80.6732C99.0557 82.5103 98.2147 83.1411 95.4148 85.2216C93.3675 86.7488 90.6451 87.6452 87.9448 87.4017C84.6801 87.1029 80.9617 83.2739 86.6721 75.9588C86.8271 75.7596 87.0152 75.5383 87.0152 75.5383C87.7013 77.1983 89.6491 78.0283 90.5565 78.1721C94.3745 78.7919 97.606 76.5232 99.266 74.8964C101.225 72.9265 101.955 71.2997 102.232 69.8611C102.708 67.4264 101.136 65.9324 100.03 65.4897C98.9229 65.0471 97.3404 64.6265 95.448 64.6487C89.9257 64.7151 83.8612 68.0793 80.3309 75.1841C79.4235 77.0101 78.3721 80.1088 79.3681 83.2739C80.3199 86.3061 82.4889 88.4863 86.5283 89.3495C89.5605 90.0024 92.8695 89.1835 95.8021 87.3796C98.6905 85.6089 100.229 83.9047 102.121 81.7799C105.375 78.1279 108.684 74.7747 110.631 73.1368C110.288 72.5392 109.99 71.9637 109.735 71.3993V71.4104ZM88.8744 73.4909C93.6552 66.5853 98.3364 67.3379 99.1775 67.7141C100.196 68.1679 100.616 68.8872 99.93 70.5915C99.4763 71.7313 99.0336 72.8159 97.0084 74.5533C96.3333 75.1288 95.7025 75.7043 93.9097 76.3351C92.9359 76.6228 91.6521 76.7999 90.7115 76.5453C89.7376 76.2797 87.9891 74.7636 88.8744 73.502V73.4909Z" fill="#EC2027"/>
</svg>
