<svg xmlns="http://www.w3.org/2000/svg" width="178" height="60" viewBox="0 0 178 60" fill="none">
    <path d="M99.604 38.9859C99.1942 40.5744 97.4446 42.7973 93.1008 43.2219C88.8969 43.6315 82.8835 42.7573 79.6544 40.0199C78.1548 38.7462 77.5699 36.5582 78.2298 34.72C79.4295 31.3682 84.748 31.3432 84.748 31.3432C84.748 31.3432 84.4131 31.2833 84.2681 31.2383C81.9438 30.509 80.1792 29.0753 79.9343 27.277C79.7344 25.7935 80.2992 24.5696 80.4542 24.2799C81.6838 22.027 83.9382 21.5225 85.8577 21.1878C87.3023 20.9381 91.0314 20.7582 94.6254 22.097C96.6149 22.8413 97.8145 23.7554 98.3594 24.5147C98.7793 25.0991 99.4741 26.0932 99.5241 27.5768C99.5391 28.0763 99.5191 29.6198 98.5543 30.7088C98.1994 31.1134 97.8645 31.4431 97.3297 31.7228C96.7348 32.0325 95.1802 32.3622 94.1005 32.3772C94.1555 32.3872 94.2005 32.4072 94.2405 32.4122C95.7401 32.6919 98.2294 33.8508 99.1592 35.4343C100.079 36.9928 99.739 38.4514 99.604 38.9859ZM96.195 37.6572C96.285 35.3244 93.2408 33.7459 89.1169 33.2963C84.993 32.8418 81.8288 33.4762 81.5489 36.0537C81.2839 38.4764 84.3431 39.8601 88.3421 40.3846C92.456 40.9241 96.1 40.1348 96.2 37.6622M83.3634 26.5228C83.2834 28.6308 86.3226 30.0644 89.5967 30.4241C93.2408 30.8237 96.03 30.1593 96.2699 27.9564C96.5099 25.7535 93.8556 24.2449 90.2116 23.8403C86.5675 23.4407 83.4534 24.2599 83.3684 26.5228" fill="white"/>
    <path d="M77.505 32.8114C76.2504 30.4636 72.5363 29.4496 70.6169 29.2647C64.6035 28.7003 61.2893 30.6984 58.5551 33.2859C58.3401 32.7764 58.1952 31.9672 58.3002 31.1379C58.6351 28.4355 60.4546 25.9978 63.8787 24.9788C66.523 24.1896 70.187 23.9698 72.3414 26.0428C73.1012 26.7721 73.3211 27.5863 73.3661 28.1708H76.7502C76.7052 27.7462 76.6053 27.2616 76.4203 26.7571C74.091 20.4181 64.5885 21.0825 60.2896 23.3304C55.8358 25.6631 54.3312 29.7792 54.7661 33.5856C54.8561 34.3949 55.4909 37.0373 57.6653 39.0255C59.8997 41.0685 64.3585 42.9517 70.5669 41.9127C79.1546 40.4691 78.6047 34.8794 77.5 32.8114M71.2567 39.0854C68.6024 39.7947 60.9795 39.8746 58.925 34.4248C60.1297 33.166 62.1891 32.132 65.3633 31.7024C67.6876 31.3877 71.7366 31.2279 73.731 33.3908C75.7255 35.5538 74.2859 38.2812 71.2567 39.0904" fill="white"/>
    <path d="M108.202 11.1818C107.997 9.80808 107.332 8.51431 105.222 8.18962C105.882 6.30141 105.407 2.95959 101.903 1.21125C96.8995 -1.28638 93.3005 0.616813 91.336 2.11539C87.742 0.611818 83.853 0.481944 81.0538 2.92962C78.7944 4.90774 78.2045 8.07472 78.9443 10.6673C79.5542 12.7852 80.8488 14.5586 82.6983 15.2079C82.9533 15.2979 83.2082 15.3628 83.4681 15.4078C83.0782 15.9273 82.9483 16.3768 83.0232 17.4608C83.1032 18.5298 82.7833 19.8086 82.7833 19.8086C82.7833 19.8086 95.01 18.3899 98.6841 22.1663C99.2089 22.7058 100.794 19.6637 100.599 16.8164C100.584 16.6116 100.734 16.3718 101.823 16.3968C102.708 16.4168 104.503 16.6516 105.922 15.7375C107.412 14.7784 108.476 13.05 108.197 11.1818M105.617 15.0831C104.587 15.7374 103.248 15.6675 102.448 15.6475C101.468 15.6226 99.7688 15.4727 99.8488 16.8414C99.8988 17.6706 99.7788 20.1882 98.774 21.2472C98.0442 20.463 96.1697 19.5838 94.3652 19.2441C90.4213 18.4948 86.0674 18.5648 83.7531 18.9294C83.898 18.33 83.813 18.1202 83.778 17.5158C83.7131 16.4018 84.1929 15.7324 84.3379 15.5226C84.6778 15.153 88.2968 14.8083 89.9964 15.2279C91.291 15.5426 89.5765 13.8892 86.1174 14.4037C85.1827 14.5436 83.3931 14.6285 82.8083 14.3488C80.9488 13.4646 80.214 11.6863 79.8841 10.2926C79.3942 8.22458 79.7591 6.35637 81.1638 4.40822C83.1882 1.59589 86.9622 1.21625 90.6762 2.65988L91.621 3.14441L92.3058 2.55497C94.4252 0.846597 97.9393 0.102303 101.798 2.03047C103.683 2.97457 105.532 5.39228 104.303 8.83401C104.303 8.83401 106.887 8.97387 107.412 10.902C107.837 12.4805 107.057 14.1689 105.607 15.0881" fill="white"/>
    <path d="M92.3109 2.55033L91.6261 3.13977L90.6814 2.66023C90.2215 2.4804 89.7616 2.33054 89.3017 2.20566L87.8471 14.3142C90.1115 14.434 91.0563 15.488 90.0015 15.2283C89.4117 15.0834 88.5919 15.0335 87.7571 15.0385L87.3223 18.67C89.4617 18.64 91.986 18.7949 94.3654 19.2445C94.9552 19.3544 95.5501 19.5292 96.1149 19.734L98.3743 0.951846C95.92 0.64214 93.7855 1.36146 92.3159 2.54533" fill="white"/>
    <path d="M107.416 10.8976C106.897 8.96942 104.307 8.82955 104.307 8.82955C105.537 5.38282 103.692 2.96512 101.803 2.02602C101.213 1.7313 100.633 1.50651 100.063 1.33168C99.4836 1.15185 98.9138 1.02696 98.3639 0.957031L96.1045 19.7392C96.7193 19.964 97.2842 20.2237 97.7591 20.5035C98.179 20.7482 98.5339 21.008 98.7688 21.2527C99.7785 20.1937 99.8935 17.6761 99.8435 16.8469C99.7635 15.4732 101.463 15.6281 102.443 15.6531C103.238 15.673 104.582 15.743 105.612 15.0886C107.062 14.1745 107.841 12.4811 107.416 10.9026" fill="#EC2027"/>
    <path d="M87.687 15.0381C86.1374 15.0581 84.5578 15.2829 84.3379 15.5226C84.1879 15.7324 83.7131 16.4018 83.778 17.5157C83.813 18.1202 83.898 18.33 83.748 18.9294C84.6528 18.7895 85.8675 18.6896 87.2521 18.6696C87.2771 18.6696 87.2971 18.6696 87.3221 18.6696L87.757 15.0381C87.757 15.0381 87.712 15.0381 87.687 15.0381Z" fill="#1A489B"/>
    <path d="M89.2315 2.1904C86.0174 1.3562 82.9282 1.96062 81.1687 4.4083C79.764 6.35645 79.3991 8.22466 79.889 10.2927C80.2189 11.6914 80.9537 13.4697 82.8132 14.3488C83.3981 14.6286 85.1876 14.5387 86.1223 14.4038C86.7322 14.3139 87.282 14.2939 87.7769 14.3139C87.7969 14.3139 87.8219 14.3139 87.8469 14.3139L89.3015 2.20539C89.3015 2.20539 89.2565 2.1954 89.2365 2.1904" fill="#1A489B"/>
    <path d="M40.3145 58.3024C40.3145 59.2166 39.4447 59.6012 38.2251 59.6312C37.7852 59.6412 36.4555 59.6312 36.0606 59.6312H35.2559V54.9556H36.0606H36.0656C36.4355 54.9556 37.5752 54.9456 38.0351 54.9506C39.2848 54.9506 39.9296 55.4152 39.9496 56.1395C39.9596 56.5291 39.7947 56.8488 39.3848 57.0186C39.1698 57.1036 39.0598 57.1086 39.0598 57.1086C39.0598 57.1086 39.1898 57.1086 39.4697 57.2035C40.0446 57.3933 40.3145 57.8429 40.3145 58.3024ZM39.4447 58.2824C39.4447 57.7579 38.9949 57.5681 38.1451 57.5681H36.0706V58.9968C36.4106 58.9968 37.5952 59.0018 38.1001 58.9968C38.9449 58.9968 39.4447 58.742 39.4447 58.2774M36.0706 56.8988H37.8352C38.725 56.8638 39.1698 56.659 39.1698 56.1994C39.1698 55.7848 38.8499 55.595 38.1951 55.57C37.8102 55.555 36.4056 55.57 36.0656 55.575V56.8988H36.0706Z" fill="white"/>
    <path d="M42.089 54.9609H41.2842V59.6365H42.089V54.9609Z" fill="white"/>
    <path d="M47.8282 59.2216C47.0484 59.8709 44.639 59.8709 43.5793 59.1716C43.1594 58.8969 43.0645 58.747 43.0645 58.747L43.7293 58.2675C43.7293 58.2675 44.0142 58.5971 44.5391 58.8069C45.2139 59.0767 46.4486 59.1466 47.0134 58.8569C47.5183 58.5971 47.4633 58.2525 47.2334 58.0277C47.0134 57.8079 46.4686 57.728 45.6788 57.648C44.5491 57.5332 43.8592 57.4283 43.4444 57.0386C43.1194 56.7339 43.0295 56.2743 43.2794 55.8448C43.7243 55.0855 44.829 54.9306 45.7637 54.9556C46.7885 54.9806 47.6882 55.3852 48.1331 55.9647L47.4883 56.4092C47.4883 56.4092 47.3433 56.1894 47.0884 56.0096C46.7235 55.7449 46.1736 55.585 45.5538 55.58C44.904 55.575 44.3691 55.7249 44.1092 55.9946C43.9942 56.1145 43.9092 56.3243 44.0142 56.5041C44.0892 56.634 44.3391 56.7739 44.699 56.8238C45.4688 56.9287 46.1686 56.9787 46.9384 57.1086C47.2833 57.1635 48.0331 57.4033 48.2181 58.0477C48.333 58.4573 48.2031 58.9118 47.8232 59.2266" fill="white"/>
    <path d="M53.241 54.885V55.5144L51.3315 55.5044V59.6405H50.5217V55.5044H48.6572V54.875L53.241 54.885Z" fill="white"/>
    <path d="M59.0101 58.5927C59.0501 59.1571 59.0851 59.6367 59.0851 59.6367H58.2503C58.2503 59.6367 58.2253 59.2221 58.2053 58.8624C58.1703 58.223 57.9704 57.9083 57.5955 57.7834C57.3305 57.6985 57.0406 57.6985 56.4358 57.7035H54.9212V59.6267L54.0664 59.6367V54.8662H57.0356C57.5355 54.8762 58.0004 54.8762 58.3553 55.036C58.8601 55.2608 59.1601 55.6654 59.1351 56.2998C59.1101 56.9392 58.6202 57.2939 58.0803 57.3688C58.8451 57.4887 58.9751 58.0732 59.0101 58.5877M58.2903 56.2549C58.2803 55.6455 57.8204 55.5006 56.9557 55.4956C56.4358 55.4956 55.2811 55.4956 54.9212 55.4956V57.0441H57.1356C57.9454 56.9992 58.3003 56.7944 58.2853 56.2499" fill="white"/>
    <path d="M65.7634 57.2683C65.7634 58.662 64.5437 59.691 62.7542 59.686C60.9847 59.686 59.75 58.662 59.75 57.2683C59.75 55.8746 61.0397 54.8506 62.7542 54.8506C64.4687 54.8506 65.7634 55.8097 65.7634 57.2683ZM64.8587 57.2383C64.8587 56.2792 64.1638 55.48 62.7542 55.48C61.4745 55.48 60.6248 56.2792 60.6248 57.2383C60.6248 58.1974 61.4895 59.0316 62.7392 59.0316C64.1988 59.0316 64.8587 58.1974 64.8587 57.2383Z" fill="white"/>
    <path d="M73.0509 59.6814C73.0509 59.6814 72.2611 59.1419 71.8212 58.8572C71.6363 59.1469 71.1064 59.6015 70.4965 59.6614C69.2469 59.7913 68.4121 59.2418 68.4121 58.3726C68.4121 57.8681 68.862 57.3686 69.5418 57.3037C69.5068 57.2737 69.2769 57.0439 69.2219 56.959C68.827 56.3196 69.2619 55.7601 69.6518 55.5903C70.1416 55.3755 70.7515 55.4254 71.1664 55.6652C71.6762 55.9599 71.6812 56.5444 71.6812 56.5444H71.0064C71.0064 56.5444 71.0314 56.0399 70.4816 55.945C69.9917 55.865 69.5318 56.2047 69.7767 56.6743C69.7767 56.6842 69.7867 56.6942 69.7917 56.7042C69.8617 56.8041 69.9867 56.934 70.1616 57.0689C70.5315 57.3536 71.0164 57.6383 71.0514 57.6633L71.9262 58.2328C72.1211 57.7482 72.0411 57.2487 72.0411 57.2487H72.7359C72.7359 57.2487 72.586 57.998 72.1211 58.3627L72.506 58.6124L73.0359 58.9571L73.0459 59.6814H73.0509ZM71.6313 58.7223C70.8914 58.2378 70.1816 57.7732 69.7668 57.4685C69.1619 57.5684 69.0119 57.948 69.0269 58.2378C69.0619 58.8672 69.7667 59.1919 70.4366 59.1819C70.9814 59.1719 71.3863 58.9921 71.6363 58.7273" fill="white"/>
    <path d="M81.0191 58.3977C80.5492 59.2119 79.6844 59.7014 78.4898 59.7014C76.7852 59.7014 75.5605 58.8123 75.5605 57.2538C75.5605 55.8101 76.7852 54.8311 78.4898 54.8311C79.6494 54.8311 80.4892 55.3406 80.9691 56.1098C80.9091 56.1348 80.8691 56.1498 80.8541 56.1598C80.6642 56.2447 80.4493 56.3346 80.2643 56.4195C79.9544 55.885 79.3495 55.5354 78.4698 55.5354C77.1901 55.5354 76.3903 56.2847 76.3903 57.2687C76.3903 58.2528 77.2601 58.9871 78.4748 58.9871C79.3595 58.9871 79.9594 58.6424 80.3143 58.093C80.5392 58.1929 80.8441 58.3227 80.8841 58.3377C80.8991 58.3427 80.9491 58.3677 81.0241 58.3977" fill="white"/>
    <path d="M86.8272 59.6508H85.8825L85.2377 58.397H82.6884L82.0585 59.6558H81.1338L83.5881 54.9453H84.3579L86.8323 59.6558L86.8272 59.6508ZM84.8978 57.7526L83.953 55.7595L83.0033 57.7526H84.8978Z" fill="white"/>
    <path d="M91.5865 55.5598H88.3224L88.3274 56.9785H91.2966V57.5979H88.3274L88.3224 59.636H87.5176V54.9404H91.5865V55.5598Z" fill="white"/>
    <path d="M96.6202 55.555H93.2911V56.9386L96.2803 56.9486V57.5681L93.2911 57.5581V59.0017H96.6202V59.6361H92.4863V54.9355H96.6202V55.555Z" fill="white"/>
    <path d="M94.1904 54.341L94.8003 53.4668L95.4901 53.4718L94.7003 54.341H94.1904Z" fill="white"/>
    <path d="M30.0526 12.4709C30.0526 12.4709 20.805 2.38552 9.9429 7.2509C0.59539 11.4369 1.05027 22.921 4.54434 28.1111C7.30361 32.2072 11.6524 34.9696 18.7606 35.6439C30.4624 36.7579 41.0096 33.0214 42.7242 26.6275C43.9988 21.887 39.2301 17.4862 36.7658 25.8133C34.1515 34.6599 30.8423 53.457 28.288 57.0436C25.7287 60.6302 20.2351 61.0498 19.4404 57.7729C18.6956 54.6858 20.66 51.7236 32.5669 49.6906C44.4737 47.6525 72.9111 41.3085 109.526 51.7486C109.526 51.7486 111.081 52.6378 110.351 54.3911C109.931 55.4001 108.857 55.6699 107.037 54.8207C105.217 53.9765 71.8014 42.2776 28.9678 51.4489C28.9678 51.4489 21.2399 52.9325 21.2349 56.1794C21.2349 57.8528 22.0397 58.752 23.0844 58.757C26.5785 58.767 27.1433 54.8557 28.323 49.8105C29.5027 44.7703 33.3217 28.221 34.8913 24.1648C36.4608 20.1137 39.2801 19.2995 41.3445 19.5842C45.5634 20.1686 45.9783 24.5545 43.8089 28.6056C41.6144 32.6967 37.3706 34.7647 29.1428 36.0485C20.0802 37.4622 15.2565 37.0026 9.41804 34.1254C3.86452 31.393 -1.00917 24.8742 0.180516 16.7319C1.40019 8.36485 8.85319 3.55941 15.9713 4.01398C23.0894 4.46854 31.1872 11.1772 30.0526 12.4759V12.4709Z" fill="white"/>
    <path d="M55.4861 35.9786C55.4061 36.0436 55.3311 36.1035 55.2462 36.1734C53.8115 37.3773 52.5019 38.8409 50.8923 40.6742C50.0726 41.6033 49.6477 41.923 48.223 42.982C47.1833 43.7512 45.8037 44.2108 44.434 44.0859C42.7795 43.9361 40.89 41.9929 43.7892 38.2864C43.8692 38.1865 43.9592 38.0766 43.9592 38.0766C44.3041 38.9208 45.2938 39.3404 45.7537 39.4104C47.6882 39.7201 49.3327 38.5761 50.1725 37.7519C51.1673 36.7529 51.5372 35.9287 51.6771 35.1994C51.9171 33.9655 51.1223 33.2113 50.5574 32.9865C49.9926 32.7617 49.1928 32.5519 48.233 32.5619C45.4338 32.5918 42.3546 34.3002 40.5651 37.9018C40.1052 38.8259 39.5703 40.3994 40.0752 42.0029C40.5551 43.5364 41.6598 44.6454 43.7043 45.085C45.2388 45.4147 46.9234 45.0001 48.408 44.0859C49.8726 43.1868 50.6524 42.3226 51.6121 41.2486C53.2617 39.4004 54.9362 37.697 55.931 36.8678C55.756 36.5681 55.6061 36.2733 55.4761 35.9836L55.4861 35.9786ZM44.9089 37.0276C47.3333 33.526 49.7126 33.9106 50.1375 34.1004C50.6524 34.3302 50.8673 34.6948 50.5224 35.559C50.2925 36.1385 50.0675 36.6879 49.0428 37.5671C48.6979 37.8618 48.383 38.1516 47.4682 38.4663C46.9734 38.6111 46.3235 38.701 45.8437 38.5712C45.3538 38.4363 44.464 37.672 44.9089 37.0276Z" fill="white"/>
</svg>