<svg width="111" height="60" viewBox="0 0 111 60" fill="none" xmlns="http://www.w3.org/2000/svg">
<path d="M99.6039 38.9859C99.194 40.5744 97.4445 42.7973 93.1007 43.2219C88.8968 43.6315 82.8834 42.7573 79.6543 40.0199C78.1547 38.7462 77.5698 36.5582 78.2296 34.72C79.4293 31.3682 84.7479 31.3432 84.7479 31.3432C84.7479 31.3432 84.413 31.2833 84.268 31.2383C81.9436 30.509 80.1791 29.0753 79.9342 27.277C79.7342 25.7935 80.2991 24.5696 80.454 24.2799C81.6837 22.027 83.9381 21.5225 85.8576 21.1878C87.3022 20.9381 91.0312 20.7582 94.6253 22.097C96.6147 22.8413 97.8144 23.7554 98.3593 24.5147C98.7791 25.0991 99.474 26.0932 99.524 27.5768C99.539 28.0763 99.519 29.6198 98.5542 30.7088C98.1993 31.1134 97.8644 31.4431 97.3295 31.7228C96.7347 32.0325 95.1801 32.3622 94.1004 32.3772C94.1554 32.3872 94.2004 32.4072 94.2404 32.4122C95.74 32.6919 98.2293 33.8508 99.1591 35.4343C100.079 36.9928 99.7389 38.4514 99.6039 38.9859ZM96.1949 37.6572C96.2848 35.3244 93.2406 33.7459 89.1167 33.2963C84.9928 32.8418 81.8287 33.4762 81.5487 36.0537C81.2838 38.4764 84.343 39.8601 88.3419 40.3846C92.4558 40.9241 96.0999 40.1348 96.1998 37.6622M83.3633 26.5228C83.2833 28.6308 86.3225 30.0644 89.5966 30.4241C93.2406 30.8237 96.0299 30.1593 96.2698 27.9564C96.5098 25.7535 93.8555 24.2449 90.2114 23.8403C86.5674 23.4407 83.4532 24.2599 83.3683 26.5228" fill="white"/>
<path d="M77.5048 32.8114C76.2501 30.4636 72.5361 29.4496 70.6166 29.2647C64.6032 28.7003 61.2891 30.6984 58.5548 33.2859C58.3399 32.7764 58.195 31.9672 58.2999 31.1379C58.6348 28.4355 60.4543 25.9978 63.8784 24.9788C66.5227 24.1896 70.1867 23.9698 72.3412 26.0428C73.101 26.7721 73.3209 27.5863 73.3659 28.1708H76.75C76.705 27.7462 76.605 27.2616 76.4201 26.7571C74.0907 20.4181 64.5882 21.0825 60.2894 23.3304C55.8356 25.6631 54.331 29.7792 54.7659 33.5856C54.8558 34.3949 55.4907 37.0373 57.6651 39.0255C59.8995 41.0685 64.3583 42.9517 70.5666 41.9127C79.1543 40.4691 78.6045 34.8794 77.4998 32.8114M71.2565 39.0854C68.6022 39.7947 60.9792 39.8746 58.9248 34.4248C60.1294 33.166 62.1889 32.132 65.363 31.7024C67.6874 31.3877 71.7363 31.2279 73.7308 33.3908C75.7253 35.5538 74.2857 38.2812 71.2565 39.0904" fill="white"/>
<path d="M108.202 11.1818C107.997 9.80808 107.332 8.51431 105.222 8.18962C105.882 6.30141 105.407 2.95959 101.903 1.21125C96.8997 -1.28638 93.3006 0.616813 91.3361 2.11539C87.7421 0.611818 83.8531 0.481944 81.0539 2.92962C78.7945 4.90774 78.2047 8.07472 78.9445 10.6673C79.5543 12.7852 80.849 14.5586 82.6985 15.2079C82.9534 15.2979 83.2083 15.3628 83.4683 15.4078C83.0784 15.9273 82.9484 16.3768 83.0234 17.4608C83.1033 18.5298 82.7834 19.8086 82.7834 19.8086C82.7834 19.8086 95.0102 18.3899 98.6842 22.1663C99.2091 22.7058 100.794 19.6637 100.599 16.8164C100.584 16.6116 100.734 16.3718 101.823 16.3968C102.708 16.4168 104.503 16.6516 105.922 15.7375C107.412 14.7784 108.477 13.05 108.197 11.1818M105.617 15.0831C104.588 15.7374 103.248 15.6675 102.448 15.6475C101.468 15.6226 99.7689 15.4727 99.8489 16.8414C99.8989 17.6706 99.7789 20.1882 98.7742 21.2472C98.0444 20.463 96.1699 19.5838 94.3653 19.2441C90.4214 18.4948 86.0676 18.5648 83.7532 18.9294C83.8981 18.33 83.8132 18.1202 83.7782 17.5158C83.7132 16.4018 84.1931 15.7324 84.338 15.5226C84.6779 15.153 88.297 14.8083 89.9965 15.2279C91.2912 15.5426 89.5766 13.8892 86.1175 14.4037C85.1828 14.5436 83.3933 14.6285 82.8084 14.3488C80.9489 13.4646 80.2141 11.6863 79.8842 10.2926C79.3943 8.22458 79.7592 6.35637 81.1639 4.40822C83.1883 1.59589 86.9623 1.21625 90.6763 2.65988L91.6211 3.14441L92.3059 2.55497C94.4253 0.846597 97.9394 0.102303 101.798 2.03047C103.683 2.97457 105.532 5.39228 104.303 8.83401C104.303 8.83401 106.887 8.97387 107.412 10.902C107.837 12.4805 107.057 14.1689 105.607 15.0881" fill="white"/>
<path d="M92.3108 2.55033L91.626 3.13977L90.6812 2.66023C90.2214 2.4804 89.7615 2.33054 89.3016 2.20566L87.847 14.3142C90.1114 14.434 91.0561 15.488 90.0014 15.2283C89.4116 15.0834 88.5918 15.0335 87.757 15.0385L87.3221 18.67C89.4616 18.64 91.9859 18.7949 94.3652 19.2445C94.9551 19.3544 95.5499 19.5292 96.1148 19.734L98.3742 0.951846C95.9198 0.64214 93.7854 1.36146 92.3158 2.54533" fill="white"/>
<path d="M107.417 10.8976C106.897 8.96942 104.308 8.82955 104.308 8.82955C105.537 5.38282 103.693 2.96512 101.803 2.02602C101.214 1.7313 100.634 1.50651 100.064 1.33168C99.484 1.15185 98.9141 1.02696 98.3643 0.957031L96.1049 19.7392C96.7197 19.964 97.2846 20.2237 97.7594 20.5035C98.1793 20.7482 98.5342 21.008 98.7692 21.2527C99.7789 20.1937 99.8939 17.6761 99.8439 16.8469C99.7639 15.4732 101.463 15.6281 102.443 15.6531C103.238 15.673 104.583 15.743 105.612 15.0886C107.062 14.1745 107.842 12.4811 107.417 10.9026" fill="#EC2027"/>
<path d="M87.6871 15.0381C86.1375 15.0581 84.5579 15.2829 84.338 15.5226C84.188 15.7324 83.7132 16.4018 83.7782 17.5157C83.8132 18.1202 83.8981 18.33 83.7482 18.9294C84.6529 18.7895 85.8676 18.6896 87.2522 18.6696C87.2772 18.6696 87.2972 18.6696 87.3222 18.6696L87.7571 15.0381C87.7571 15.0381 87.7121 15.0381 87.6871 15.0381Z" fill="#1A489B"/>
<path d="M89.2316 2.1904C86.0175 1.3562 82.9283 1.96062 81.1688 4.4083C79.7642 6.35645 79.3993 8.22466 79.8891 10.2927C80.219 11.6914 80.9538 13.4697 82.8133 14.3488C83.3982 14.6286 85.1877 14.5387 86.1225 14.4038C86.7323 14.3139 87.2821 14.2939 87.777 14.3139C87.797 14.3139 87.822 14.3139 87.847 14.3139L89.3016 2.20539C89.3016 2.20539 89.2566 2.1954 89.2366 2.1904" fill="#1A489B"/>
<path d="M40.3148 58.3024C40.3148 59.2166 39.445 59.6012 38.2253 59.6312C37.7854 59.6412 36.4558 59.6312 36.0609 59.6312H35.2561V54.9556H36.0609H36.0659C36.4358 54.9556 37.5755 54.9456 38.0354 54.9506C39.285 54.9506 39.9299 55.4152 39.9499 56.1395C39.9599 56.5291 39.7949 56.8488 39.385 57.0186C39.1701 57.1036 39.0601 57.1086 39.0601 57.1086C39.0601 57.1086 39.1901 57.1086 39.47 57.2035C40.0448 57.3933 40.3148 57.8429 40.3148 58.3024ZM39.445 58.2824C39.445 57.7579 38.9951 57.5681 38.1453 57.5681H36.0709V58.9968C36.4108 58.9968 37.5955 59.0018 38.1003 58.9968C38.9451 58.9968 39.445 58.742 39.445 58.2774M36.0709 56.8988H37.8354C38.7252 56.8638 39.1701 56.659 39.1701 56.1994C39.1701 55.7848 38.8501 55.595 38.1953 55.57C37.8104 55.555 36.4058 55.57 36.0659 55.575V56.8988H36.0709Z" fill="white"/>
<path d="M42.0893 54.9609H41.2845V59.6365H42.0893V54.9609Z" fill="white"/>
<path d="M47.8277 59.2216C47.0479 59.8709 44.6386 59.8709 43.5788 59.1716C43.159 58.8969 43.064 58.747 43.064 58.747L43.7288 58.2675C43.7288 58.2675 44.0137 58.5971 44.5386 58.8069C45.2134 59.0767 46.4481 59.1466 47.0129 58.8569C47.5178 58.5971 47.4628 58.2525 47.2329 58.0277C47.0129 57.8079 46.4681 57.728 45.6783 57.648C44.5486 57.5332 43.8588 57.4283 43.4439 57.0386C43.119 56.7339 43.029 56.2743 43.2789 55.8448C43.7238 55.0855 44.8285 54.9306 45.7633 54.9556C46.788 54.9806 47.6877 55.3852 48.1326 55.9647L47.4878 56.4092C47.4878 56.4092 47.3428 56.1894 47.0879 56.0096C46.723 55.7449 46.1732 55.585 45.5533 55.58C44.9035 55.575 44.3686 55.7249 44.1087 55.9946C43.9937 56.1145 43.9088 56.3243 44.0137 56.5041C44.0887 56.634 44.3386 56.7739 44.6985 56.8238C45.4683 56.9287 46.1681 56.9787 46.9379 57.1086C47.2828 57.1635 48.0326 57.4033 48.2176 58.0477C48.3326 58.4573 48.2026 58.9118 47.8227 59.2266" fill="white"/>
<path d="M53.2414 54.885V55.5144L51.3319 55.5044V59.6405H50.5221V55.5044H48.6576V54.875L53.2414 54.885Z" fill="white"/>
<path d="M59.0097 58.5927C59.0497 59.1571 59.0847 59.6367 59.0847 59.6367H58.2499C58.2499 59.6367 58.2249 59.2221 58.205 58.8624C58.17 58.223 57.97 57.9083 57.5951 57.7834C57.3302 57.6985 57.0402 57.6985 56.4354 57.7035H54.9208V59.6267L54.066 59.6367V54.8662H57.0352C57.5351 54.8762 58 54.8762 58.3549 55.036C58.8598 55.2608 59.1597 55.6654 59.1347 56.2998C59.1097 56.9392 58.6198 57.2939 58.08 57.3688C58.8448 57.4887 58.9747 58.0732 59.0097 58.5877M58.2899 56.2549C58.2799 55.6455 57.8201 55.5006 56.9553 55.4956C56.4354 55.4956 55.2807 55.4956 54.9208 55.4956V57.0441H57.1352C57.945 56.9992 58.2999 56.7944 58.2849 56.2499" fill="white"/>
<path d="M65.7629 57.2683C65.7629 58.662 64.5432 59.691 62.7537 59.686C60.9842 59.686 59.7495 58.662 59.7495 57.2683C59.7495 55.8746 61.0392 54.8506 62.7537 54.8506C64.4683 54.8506 65.7629 55.8097 65.7629 57.2683ZM64.8582 57.2383C64.8582 56.2792 64.1633 55.48 62.7537 55.48C61.4741 55.48 60.6243 56.2792 60.6243 57.2383C60.6243 58.1974 61.489 59.0316 62.7387 59.0316C64.1983 59.0316 64.8582 58.1974 64.8582 57.2383Z" fill="white"/>
<path d="M73.0511 59.6814C73.0511 59.6814 72.2613 59.1419 71.8214 58.8572C71.6365 59.1469 71.1066 59.6015 70.4968 59.6614C69.2471 59.7913 68.4124 59.2418 68.4124 58.3726C68.4124 57.8681 68.8622 57.3686 69.5421 57.3037C69.5071 57.2737 69.2771 57.0439 69.2221 56.959C68.8272 56.3196 69.2621 55.7601 69.652 55.5903C70.1419 55.3755 70.7517 55.4254 71.1666 55.6652C71.6765 55.9599 71.6815 56.5444 71.6815 56.5444H71.0067C71.0067 56.5444 71.0317 56.0399 70.4818 55.945C69.9919 55.865 69.532 56.2047 69.777 56.6743C69.777 56.6842 69.787 56.6942 69.792 56.7042C69.862 56.8041 69.9869 56.934 70.1619 57.0689C70.5318 57.3536 71.0166 57.6383 71.0516 57.6633L71.9264 58.2328C72.1213 57.7482 72.0414 57.2487 72.0414 57.2487H72.7362C72.7362 57.2487 72.5862 57.998 72.1214 58.3627L72.5063 58.6124L73.0361 58.9571L73.0461 59.6814H73.0511ZM71.6315 58.7223C70.8917 58.2378 70.1819 57.7732 69.767 57.4685C69.1622 57.5684 69.0122 57.948 69.0272 58.2378C69.0622 58.8672 69.767 59.1919 70.4368 59.1819C70.9817 59.1719 71.3866 58.9921 71.6365 58.7273" fill="white"/>
<path d="M81.019 58.3977C80.5491 59.2119 79.6843 59.7014 78.4896 59.7014C76.7851 59.7014 75.5604 58.8123 75.5604 57.2538C75.5604 55.8101 76.7851 54.8311 78.4896 54.8311C79.6493 54.8311 80.4891 55.3406 80.969 56.1098C80.909 56.1348 80.869 56.1498 80.854 56.1598C80.6641 56.2447 80.4491 56.3346 80.2642 56.4195C79.9543 55.885 79.3494 55.5354 78.4697 55.5354C77.19 55.5354 76.3902 56.2847 76.3902 57.2687C76.3902 58.2528 77.26 58.9871 78.4747 58.9871C79.3594 58.9871 79.9593 58.6424 80.3142 58.093C80.5391 58.1929 80.844 58.3227 80.884 58.3377C80.899 58.3427 80.949 58.3677 81.024 58.3977" fill="white"/>
<path d="M86.8274 59.6508H85.8826L85.2378 58.397H82.6885L82.0587 59.6558H81.1339L83.5882 54.9453H84.358L86.8324 59.6558L86.8274 59.6508ZM84.8979 57.7526L83.9531 55.7595L83.0034 57.7526H84.8979Z" fill="white"/>
<path d="M91.5861 55.5598H88.322L88.327 56.9785H91.2962V57.5979H88.327L88.322 59.636H87.5172V54.9404H91.5861V55.5598Z" fill="white"/>
<path d="M96.6197 55.555H93.2906V56.9386L96.2798 56.9486V57.5681L93.2906 57.5581V59.0017H96.6197V59.6361H92.4858V54.9355H96.6197V55.555Z" fill="white"/>
<path d="M94.1904 54.341L94.8003 53.4668L95.4901 53.4718L94.7003 54.341H94.1904Z" fill="white"/>
<path d="M30.0526 12.4709C30.0526 12.4709 20.805 2.38552 9.9429 7.2509C0.59539 11.4369 1.05027 22.921 4.54434 28.1111C7.30361 32.2072 11.6524 34.9696 18.7606 35.6439C30.4624 36.7579 41.0096 33.0214 42.7242 26.6275C43.9988 21.887 39.2301 17.4862 36.7658 25.8133C34.1515 34.6599 30.8423 53.457 28.288 57.0436C25.7287 60.6302 20.2351 61.0498 19.4404 57.7729C18.6956 54.6858 20.66 51.7236 32.5669 49.6906C44.4737 47.6525 72.9111 41.3085 109.526 51.7486C109.526 51.7486 111.081 52.6378 110.351 54.3911C109.931 55.4001 108.857 55.6699 107.037 54.8207C105.217 53.9765 71.8014 42.2776 28.9678 51.4489C28.9678 51.4489 21.2399 52.9325 21.2349 56.1794C21.2349 57.8528 22.0397 58.752 23.0844 58.757C26.5785 58.767 27.1433 54.8557 28.323 49.8105C29.5027 44.7703 33.3217 28.221 34.8913 24.1648C36.4608 20.1137 39.2801 19.2995 41.3445 19.5842C45.5634 20.1686 45.9783 24.5545 43.8089 28.6056C41.6144 32.6967 37.3706 34.7647 29.1428 36.0485C20.0802 37.4622 15.2565 37.0026 9.41804 34.1254C3.86452 31.393 -1.00917 24.8742 0.180516 16.7319C1.40019 8.36485 8.85319 3.55941 15.9713 4.01398C23.0894 4.46854 31.1872 11.1772 30.0526 12.4759V12.4709Z" fill="white"/>
<path d="M55.4856 35.9786C55.4056 36.0436 55.3306 36.1035 55.2457 36.1734C53.811 37.3773 52.5014 38.8409 50.8918 40.6742C50.0721 41.6033 49.6472 41.923 48.2225 42.982C47.1828 43.7512 45.8032 44.2108 44.4335 44.0859C42.779 43.9361 40.8895 41.9929 43.7887 38.2864C43.8687 38.1865 43.9587 38.0766 43.9587 38.0766C44.3036 38.9208 45.2933 39.3404 45.7532 39.4104C47.6877 39.7201 49.3323 38.5761 50.172 37.7519C51.1668 36.7529 51.5367 35.9287 51.6766 35.1994C51.9166 33.9655 51.1218 33.2113 50.5569 32.9865C49.9921 32.7617 49.1923 32.5519 48.2326 32.5619C45.4333 32.5918 42.3541 34.3002 40.5646 37.9018C40.1047 38.8259 39.5699 40.3994 40.0747 42.0029C40.5546 43.5364 41.6593 44.6454 43.7038 45.085C45.2384 45.4147 46.9229 45.0001 48.4075 44.0859C49.8721 43.1868 50.6519 42.3226 51.6117 41.2486C53.2612 39.4004 54.9357 37.697 55.9305 36.8678C55.7555 36.5681 55.6056 36.2733 55.4756 35.9836L55.4856 35.9786ZM44.9084 37.0276C47.3328 33.526 49.7122 33.9106 50.137 34.1004C50.6519 34.3302 50.8669 34.6948 50.5219 35.559C50.292 36.1385 50.0671 36.6879 49.0423 37.5671C48.6974 37.8618 48.3825 38.1516 47.4677 38.4663C46.9729 38.6111 46.323 38.701 45.8432 38.5712C45.3533 38.4363 44.4635 37.672 44.9084 37.0276Z" fill="white"/>
</svg>
